<svg id="Layer_1" data-name="Layer 1" xmlns="http://www.w3.org/2000/svg" viewBox="0 0 757.18 122.96"><defs><style>.cls-1{fill:#074585;}.cls-2{fill:#3d8ff3;}.cls-3{fill:#ffad1a;}</style></defs><title>cognohub</title><rect class="cls-1" x="148.49" y="509.71" width="117.61" height="29.4" rx="14.7" transform="translate(-471.5 -178.35) rotate(-45)"/><rect class="cls-2" x="179.68" y="540.89" width="117.61" height="29.4" rx="14.7" transform="translate(-484.42 -147.16) rotate(-45)"/><rect class="cls-3" x="254.96" y="572.08" width="29.4" height="29.4" rx="14.7" transform="translate(-497.34 -115.98) rotate(-45)"/><path class="cls-1" d="M345,566.25a37.18,37.18,0,0,1-14.58-13.83,40.32,40.32,0,0,1,0-40A37.18,37.18,0,0,1,345,498.59a43.39,43.39,0,0,1,20.86-5A43.92,43.92,0,0,1,383.46,497a35.43,35.43,0,0,1,13.24,9.87l-11.15,10.29a24,24,0,0,0-18.87-8.79,25,25,0,0,0-12.44,3.06,21.71,21.71,0,0,0-8.53,8.52,26.89,26.89,0,0,0,0,24.88,21.64,21.64,0,0,0,8.53,8.52,25,25,0,0,0,12.44,3.06,23.85,23.85,0,0,0,18.87-8.9l11.15,10.29a34.76,34.76,0,0,1-13.3,10,44.26,44.26,0,0,1-17.69,3.43A43,43,0,0,1,345,566.25Z" transform="translate(-161.41 -478.52)"/><path class="cls-1" d="M416.27,567A28.19,28.19,0,0,1,405,556.44a30.86,30.86,0,0,1,0-30.67,28.25,28.25,0,0,1,11.31-10.56,36.88,36.88,0,0,1,32.65,0,28.45,28.45,0,0,1,11.26,10.56,30.92,30.92,0,0,1,0,30.67A28.38,28.38,0,0,1,448.92,567a36.88,36.88,0,0,1-32.65,0Zm26.91-14.26q4.14-4.34,4.13-11.63t-4.13-11.64a13.94,13.94,0,0,0-10.56-4.34A14.1,14.1,0,0,0,422,529.47q-4.18,4.35-4.19,11.64T422,552.74a14.06,14.06,0,0,0,10.61,4.34A13.9,13.9,0,0,0,443.18,552.74Z" transform="translate(-161.41 -478.52)"/><path class="cls-1" d="M534.92,512.26v48q0,15.87-8.26,23.59t-24.12,7.72a60.64,60.64,0,0,1-15.87-2,34.68,34.68,0,0,1-12.44-5.9l6.65-12a27.36,27.36,0,0,0,9.22,4.77,36.62,36.62,0,0,0,11.15,1.77q8.69,0,12.81-3.92t4.13-11.84V560q-6.54,7.18-18.23,7.18a30.66,30.66,0,0,1-14.53-3.48A26.52,26.52,0,0,1,475,553.87a29.48,29.48,0,0,1,0-29.17,26.52,26.52,0,0,1,10.45-9.81A30.67,30.67,0,0,1,500,511.4q12.56,0,19.09,8.26v-7.4Zm-20.75,37.26a14.49,14.49,0,0,0,0-20.48,15.39,15.39,0,0,0-10.88-3.91A15.59,15.59,0,0,0,492.35,529a14.37,14.37,0,0,0,0,20.48,15.59,15.59,0,0,0,10.94,3.92A15.39,15.39,0,0,0,514.17,549.52Z" transform="translate(-161.41 -478.52)"/><path class="cls-1" d="M602.85,517.84q6.6,6.43,6.6,19.08v33H592.72V539.5q0-6.87-3-10.24T581,525.88A13.34,13.34,0,0,0,571,529.79q-3.75,3.91-3.75,11.64V570H550.47V512.26h16V519a22.07,22.07,0,0,1,8.25-5.63,28.83,28.83,0,0,1,10.83-2Q596.25,511.4,602.85,517.84Z" transform="translate(-161.41 -478.52)"/><path class="cls-1" d="M636.31,567A28.28,28.28,0,0,1,625,556.44a30.92,30.92,0,0,1,0-30.67,28.35,28.35,0,0,1,11.32-10.56,36.88,36.88,0,0,1,32.65,0,28.45,28.45,0,0,1,11.26,10.56,30.92,30.92,0,0,1,0,30.67A28.38,28.38,0,0,1,669,567a36.88,36.88,0,0,1-32.65,0Zm26.91-14.26q4.13-4.34,4.13-11.63t-4.13-11.64a13.94,13.94,0,0,0-10.56-4.34A14.13,14.13,0,0,0,642,529.47q-4.18,4.35-4.18,11.64T642,552.74a14.1,14.1,0,0,0,10.62,4.34A13.9,13.9,0,0,0,663.22,552.74Z" transform="translate(-161.41 -478.52)"/><path class="cls-1" d="M765.47,494.89V570H748.09V539.18H714V570H696.62V494.89H714v29.6h34.1v-29.6Z" transform="translate(-161.41 -478.52)"/><path class="cls-1" d="M840.21,512.26V570H824.34v-6.86a22.4,22.4,0,0,1-7.94,5.74,25,25,0,0,1-10,2q-11.37,0-18-6.54t-6.64-19.41v-32.6h16.72v30.13q0,14,11.69,13.94a12.56,12.56,0,0,0,9.65-3.91q3.64-3.92,3.65-11.63V512.26Z" transform="translate(-161.41 -478.52)"/><path class="cls-1" d="M904.49,515.1a26.61,26.61,0,0,1,10.35,10.4,34.34,34.34,0,0,1,0,31.21,26.54,26.54,0,0,1-10.35,10.4,29.36,29.36,0,0,1-14.64,3.7q-11.9,0-18.12-7.51V570h-16V490.39h16.73v28q6.33-7,17.37-7A29.46,29.46,0,0,1,904.49,515.1Zm-7,37.64q4.13-4.34,4.13-11.63t-4.13-11.64a15,15,0,0,0-21.12,0q-4.14,4.35-4.13,11.64t4.13,11.63a15,15,0,0,0,21.12,0Z" transform="translate(-161.41 -478.52)"/></svg>